<svg width="37" height="37" viewBox="0 0 37 37" fill="none" xmlns="http://www.w3.org/2000/svg">
<path d="M18.0299 25.3752C20.1604 25.3752 21.8874 23.6481 21.8874 21.5177C21.8874 19.3872 20.1604 17.6602 18.0299 17.6602C15.8995 17.6602 14.1724 19.3872 14.1724 21.5177C14.1724 23.6481 15.8995 25.3752 18.0299 25.3752Z" stroke="white" stroke-width="2" stroke-miterlimit="10" stroke-linecap="round" stroke-linejoin="round"/>
<path d="M9.37384 36.0075C9.37384 31.2091 13.2314 27.3516 18.0298 27.3516C22.8281 27.3516 26.6857 31.2091 26.6857 36.0075" stroke="white" stroke-width="2" stroke-miterlimit="10" stroke-linecap="round" stroke-linejoin="round"/>
<path d="M29.4142 25.5618C31.0251 25.5618 32.3309 24.256 32.3309 22.6452C32.3309 21.0344 31.0251 19.7285 29.4142 19.7285C27.8034 19.7285 26.4976 21.0344 26.4976 22.6452C26.4976 24.256 27.8034 25.5618 29.4142 25.5618Z" stroke="white" stroke-width="2" stroke-miterlimit="10" stroke-linecap="round" stroke-linejoin="round"/>
<path d="M26.6855 27.7266C27.5323 27.3503 28.4732 27.1621 29.414 27.1621C33.0834 27.1621 36.0001 30.0788 36.0001 33.7481" stroke="white" stroke-width="2" stroke-miterlimit="10" stroke-linecap="round" stroke-linejoin="round"/>
<path d="M7.58601 25.5618C9.19684 25.5618 10.5027 24.256 10.5027 22.6452C10.5027 21.0344 9.19684 19.7285 7.58601 19.7285C5.97518 19.7285 4.66934 21.0344 4.66934 22.6452C4.66934 24.256 5.97518 25.5618 7.58601 25.5618Z" stroke="white" stroke-width="2" stroke-miterlimit="10" stroke-linecap="round" stroke-linejoin="round"/>
<path d="M1 33.6544C1 29.985 3.91667 27.0684 7.58602 27.0684C8.52688 27.0684 9.37366 27.2565 10.1263 27.5388" stroke="white" stroke-width="2" stroke-miterlimit="10" stroke-linecap="round" stroke-linejoin="round"/>
<path d="M11.3491 15.4919C11.3491 15.3038 11.3491 15.2097 11.3491 15.0215C11.3491 11.0699 14.548 7.87097 18.4997 7.87097C22.4513 7.87097 25.6502 11.0699 25.6502 15.0215" stroke="#04BBF2" stroke-width="2" stroke-miterlimit="10" stroke-linecap="round" stroke-linejoin="round"/>
<path d="M32.6127 15.0226V12.2H29.696C29.4138 11.071 28.9433 10.036 28.3788 9.09518L30.4487 7.11938L26.4971 3.16776L24.4272 5.23765C23.4863 4.67314 22.4514 4.20271 21.3224 3.92045V1.00378H15.7713V3.92045C14.6422 4.20271 13.6073 4.67314 12.6664 5.23765L10.5965 3.16776L6.64494 7.11938L8.71483 9.18927C8.15031 10.1301 7.67988 11.1651 7.39762 12.2941H4.48096V15.7753" stroke="#04BBF2" stroke-width="2" stroke-miterlimit="10" stroke-linecap="round" stroke-linejoin="round"/>
</svg>
