<svg width="50" height="51" viewBox="0 0 50 51" fill="none" xmlns="http://www.w3.org/2000/svg">
<path d="M24.2303 32.3884C27.9085 32.3884 30.8903 29.4066 30.8903 25.7284C30.8903 22.0501 27.9085 19.0684 24.2303 19.0684C20.5521 19.0684 17.5703 22.0501 17.5703 25.7284C17.5703 29.4066 20.5521 32.3884 24.2303 32.3884Z" stroke="#04BBF2" stroke-width="2" stroke-miterlimit="10" stroke-linecap="round" stroke-linejoin="round"/>
<path d="M40.3299 28.4487V23.0187H38.0599C37.6968 21.1844 36.9728 19.4406 35.9299 17.8887L37.5399 16.2887L33.6899 12.4387L32.0799 14.0387C30.527 12.9996 28.7833 12.279 26.9499 11.9187V9.63867H21.5099V11.9187C19.677 12.2808 17.9336 13.0012 16.3799 14.0387L14.7699 12.4387L10.9199 16.2887L12.5299 17.8887C11.49 19.4412 10.7694 21.185 10.4099 23.0187H8.12988V28.4686H10.4099C10.7671 30.303 11.4879 32.0473 12.5299 33.5986L10.9199 35.2086L14.7699 39.0587L16.3799 37.4487C17.9336 38.4862 19.677 39.2067 21.5099 39.5687V41.8486H26.9499V39.5687C28.7833 39.2084 30.527 38.4879 32.0799 37.4487L33.6899 39.0587L37.5399 35.2086L35.9299 33.5986C36.9754 32.0481 37.6996 30.3037 38.0599 28.4686L40.3299 28.4487Z" stroke="#04BBF2" stroke-width="2" stroke-miterlimit="10" stroke-linecap="round" stroke-linejoin="round"/>
<path d="M47.5402 18.707C48.2357 20.9753 48.5896 23.3345 48.5902 25.707C48.5902 28.832 47.9745 31.9265 46.7783 34.8135C45.5821 37.7005 43.8289 40.3235 41.6187 42.5327C39.4085 44.742 36.7848 46.4941 33.8973 47.6891C31.0098 48.8841 27.9152 49.4984 24.7902 49.4971C21.0205 49.503 17.304 48.6082 13.9502 46.8871" stroke="#10385B" stroke-width="2" stroke-miterlimit="10" stroke-linecap="round" stroke-linejoin="round"/>
<path d="M3.09001 35.4877C1.70928 32.4193 0.996855 29.0924 1.00001 25.7277C0.998697 22.6027 1.61308 19.5081 2.80805 16.6206C4.00303 13.7332 5.75516 11.1094 7.9644 8.89921C10.1736 6.68905 12.7967 4.93573 15.6837 3.73954C18.5707 2.54336 21.665 1.92778 24.79 1.92778C29.3046 1.91938 33.7278 3.19944 37.54 5.61772" stroke="#10385B" stroke-width="2" stroke-miterlimit="10" stroke-linecap="round" stroke-linejoin="round"/>
<path d="M4.51973 39.598C5.65191 39.598 6.56973 38.6802 6.56973 37.548C6.56973 36.4159 5.65191 35.498 4.51973 35.498C3.38754 35.498 2.46973 36.4159 2.46973 37.548C2.46973 38.6802 3.38754 39.598 4.51973 39.598Z" stroke="#10385B" stroke-width="2" stroke-miterlimit="10" stroke-linecap="round" stroke-linejoin="round"/>
<path d="M46.8 18.7074C47.9322 18.7074 48.85 17.7896 48.85 16.6574C48.85 15.5252 47.9322 14.6074 46.8 14.6074C45.6678 14.6074 44.75 15.5252 44.75 16.6574C44.75 17.7896 45.6678 18.7074 46.8 18.7074Z" stroke="#10385B" stroke-width="2" stroke-miterlimit="10" stroke-linecap="round" stroke-linejoin="round"/>
</svg>
