<svg width="33" height="32" viewBox="0 0 33 32" fill="none" xmlns="http://www.w3.org/2000/svg">
<path d="M14.4024 27.2638H18.4864C20.1329 27.2638 21.4696 28.6006 21.4696 30.247V30.9596H11.4192V30.247C11.4192 28.6006 12.756 27.2638 14.4024 27.2638Z" stroke="white" stroke-width="2" stroke-miterlimit="10" stroke-linecap="round" stroke-linejoin="round"/>
<path d="M16.3726 1V27.2639" stroke="white" stroke-width="2" stroke-miterlimit="10" stroke-linecap="round" stroke-linejoin="round"/>
<path d="M1 7.20706C2.31221 7.17265 4.3223 7.05962 6.74523 6.66153C12.6084 5.69826 12.9426 4.37622 16.373 4.36147C19.5332 4.34673 19.8428 5.46727 26.4284 6.60255C28.2812 6.92201 29.8195 7.10385 30.8516 7.20706" stroke="white" stroke-width="2" stroke-miterlimit="10" stroke-linecap="round" stroke-linejoin="round"/>
<path d="M1.68799 18.2832C2.26792 21.0944 4.81371 23.0406 7.54625 22.8686C10.038 22.7162 12.1808 20.8339 12.6968 18.2832H1.68799Z" stroke="#04BBF2" stroke-width="2" stroke-miterlimit="10" stroke-linecap="round" stroke-linejoin="round"/>
<path d="M20.3145 18.2832C20.8944 21.0944 23.4402 23.0406 26.1727 22.8686C28.6644 22.7162 30.8072 20.8339 31.3233 18.2832H20.3145V18.2832Z" stroke="#04BBF2" stroke-width="2" stroke-miterlimit="10" stroke-linecap="round" stroke-linejoin="round"/>
<path d="M6.74497 6.66016L3.22607 18.2833H10.8929L6.74497 6.66016Z" stroke="#04BBF2" stroke-width="2" stroke-miterlimit="10" stroke-linecap="round" stroke-linejoin="round"/>
<path d="M25.9373 6.66016L22.4185 18.2833H30.0902L25.9373 6.66016Z" stroke="#04BBF2" stroke-width="2" stroke-miterlimit="10" stroke-linecap="round" stroke-linejoin="round"/>
</svg>
