<svg width="49" height="40" viewBox="0 0 49 40" fill="none" xmlns="http://www.w3.org/2000/svg">
<path d="M20.1014 32.2518L21.0025 31.8182L20.73 31.2518H20.1014V32.2518ZM22.9063 38.0806L22.0052 38.5142L22.0052 38.5142L22.9063 38.0806ZM24.7085 38.0806L23.8074 37.647L23.8074 37.647L24.7085 38.0806ZM27.5134 32.2518V31.2518H26.8849L26.6123 31.8182L27.5134 32.2518ZM2 5.87891C2 4.22205 3.34315 2.87891 5 2.87891V0.878906C2.23858 0.878906 0 3.11749 0 5.87891H2ZM2 28.2518V5.87891H0V28.2518H2ZM5 31.2518C3.34314 31.2518 2 29.9086 2 28.2518H0C0 31.0132 2.23857 33.2518 5 33.2518V31.2518ZM20.1014 31.2518H5V33.2518H20.1014V31.2518ZM23.8074 37.647L21.0025 31.8182L19.2003 32.6854L22.0052 38.5142L23.8074 37.647ZM23.8074 37.647L23.8074 37.647L22.0052 38.5142C22.732 40.0245 24.8828 40.0246 25.6096 38.5142L23.8074 37.647ZM26.6123 31.8182L23.8074 37.647L25.6096 38.5142L28.4145 32.6854L26.6123 31.8182ZM43.6755 31.2518H27.5134V33.2518H43.6755V31.2518ZM46.6755 28.2518C46.6755 29.9086 45.3323 31.2518 43.6755 31.2518V33.2518C46.4369 33.2518 48.6755 31.0132 48.6755 28.2518H46.6755ZM46.6755 5.87891V28.2518H48.6755V5.87891H46.6755ZM43.6755 2.87891C45.3324 2.87891 46.6755 4.22205 46.6755 5.87891H48.6755C48.6755 3.11748 46.4369 0.878906 43.6755 0.878906V2.87891ZM5 2.87891H43.6755V0.878906H5V2.87891Z" fill="#10385B"/>
<path d="M11.6804 11.3691L13.1614 15.0929L16.5709 15.6322L14.0767 18.4728L14.7029 22.5299L11.6804 20.5617L8.65784 22.5299L9.284 18.4728L6.78982 15.6322L10.1993 15.0929L11.6804 11.3691Z" stroke="#04BBF2" stroke-width="2" stroke-miterlimit="10" stroke-linecap="round" stroke-linejoin="round"/>
<path d="M36.9961 11.3691L38.4771 15.0929L41.8866 15.6322L39.3925 18.4728L40.0186 22.5299L36.9961 20.5617L33.9736 22.5299L34.5997 18.4728L32.1056 15.6322L35.5151 15.0929L36.9961 11.3691Z" stroke="#04BBF2" stroke-width="2" stroke-miterlimit="10" stroke-linecap="round" stroke-linejoin="round"/>
<path d="M24.3383 8.52148L25.8193 12.2453L29.2288 12.7845L26.7346 15.6251L27.3608 19.6822L24.3383 17.714L21.3157 19.6822L21.9419 15.6251L19.4477 12.7845L22.8572 12.2453L24.3383 8.52148Z" stroke="#04BBF2" stroke-width="2" stroke-miterlimit="10" stroke-linecap="round" stroke-linejoin="round"/>
</svg>
