<svg width="37" height="27" viewBox="0 0 37 27" fill="none" xmlns="http://www.w3.org/2000/svg">
<path d="M1 4.74235L16.9979 1.23195C17.4406 1.13255 17.906 1.21839 18.2855 1.46236L25.8078 6.31458L30.6374 5.37034C31.1208 5.27546 31.5907 5.58268 31.6991 6.05706L32.6704 10.2632C32.7834 10.7557 32.4762 11.2436 31.9837 11.3565L25.1707 12.8836C24.868 12.9514 24.5518 12.8972 24.2897 12.7255L16.6681 7.82356C16.4015 7.65188 16.0807 7.59766 15.7735 7.66995L12.9137 8.34311" stroke="white" stroke-width="2" stroke-miterlimit="10" stroke-linecap="round" stroke-linejoin="round"/>
<path d="M36.0004 21.2654L20.1426 25.3632C19.7043 25.4761 19.2345 25.4084 18.8459 25.1779L11.152 20.6058L6.35846 21.7263C5.87957 21.8392 5.40067 21.5501 5.27417 21.0757L4.14921 16.9057C4.01819 16.4177 4.30734 15.9163 4.79527 15.7898L11.5495 14.0142C11.8477 13.9374 12.1685 13.9781 12.435 14.1362L20.2329 18.758C20.504 18.9207 20.8293 18.9613 21.132 18.88L23.9647 18.1029" stroke="#04BBF2" stroke-width="2" stroke-miterlimit="10" stroke-linecap="round" stroke-linejoin="round"/>
</svg>
