<svg width="45" height="33" viewBox="0 0 45 33" fill="none" xmlns="http://www.w3.org/2000/svg">
<path d="M29.5101 13.9154C33.0766 13.9154 35.9679 11.0242 35.9679 7.45765C35.9679 3.89114 33.0766 0.999908 29.5101 0.999908C25.9436 0.999908 23.0524 3.89114 23.0524 7.45765C23.0524 11.0242 25.9436 13.9154 29.5101 13.9154Z" stroke="#1FD4F6" stroke-width="2" stroke-miterlimit="10" stroke-linecap="round" stroke-linejoin="round"/>
<path d="M15.0186 31.8715C15.0186 23.8387 21.4764 17.3809 29.5092 17.3809C37.542 17.3809 43.9997 23.8387 43.9997 31.8715" stroke="#1FD4F6" stroke-width="2" stroke-miterlimit="10" stroke-linecap="round" stroke-linejoin="round"/>
<path d="M12.0256 14.3902C14.7222 14.3902 16.9083 12.2041 16.9083 9.5075C16.9083 6.81087 14.7222 4.62482 12.0256 4.62482C9.32894 4.62482 7.14288 6.81087 7.14288 9.5075C7.14288 12.2041 9.32894 14.3902 12.0256 14.3902Z" stroke="#10385B" stroke-width="2" stroke-miterlimit="10" stroke-linecap="round" stroke-linejoin="round"/>
<path d="M1 27.9355C1 21.7928 5.88269 16.9101 12.0254 16.9101C13.6005 16.9101 15.018 17.2251 16.2781 17.6976" stroke="#10385B" stroke-width="2" stroke-miterlimit="10" stroke-linecap="round" stroke-linejoin="round"/>
</svg>
