<svg width="38" height="36" viewBox="0 0 38 36" fill="none" xmlns="http://www.w3.org/2000/svg">
<path d="M21.8195 8.48994L25.1845 11.882L32.3951 4.61328" stroke="#04BBF2" stroke-width="2" stroke-miterlimit="10" stroke-linecap="round" stroke-linejoin="round"/>
<ellipse cx="24.7032" cy="9.45839" rx="7.69133" ry="7.75331" stroke="#04BBF2" stroke-width="2" stroke-miterlimit="10" stroke-linecap="round" stroke-linejoin="round"/>
<path d="M1 22.7406H7.69102C8.39009 22.1366 9.88808 21.0292 12.185 20.6265C15.9799 20.1231 18.6763 22.3379 19.1756 22.7406H24.5684C25.7668 22.7406 26.7654 23.7473 26.7654 24.9553C26.7654 26.1634 25.7668 27.1701 24.5684 27.1701H19.1756" stroke="white" stroke-width="2" stroke-miterlimit="10" stroke-linecap="round" stroke-linejoin="round"/>
<path d="M26.9652 24.2506C26.9652 24.2506 31.2594 21.5325 34.0557 20.3244C35.0543 19.8211 36.2527 20.3244 36.752 21.3311C37.2514 22.2372 36.9518 23.2439 36.2527 23.9486L25.7668 33.1096C24.868 33.915 23.5697 34.3177 22.3713 34.1163L8.48995 32.0022H1" stroke="white" stroke-width="2" stroke-miterlimit="10" stroke-linecap="round" stroke-linejoin="round"/>
</svg>
