<svg width="39" height="34" viewBox="0 0 39 34" fill="none" xmlns="http://www.w3.org/2000/svg">
<path d="M35.4126 32.2955H3.58741C2.16434 32.2955 1 31.1411 1 29.7303V10.1064C1 8.69551 2.16434 7.54117 3.58741 7.54117H35.4126C36.8357 7.54117 38 8.69551 38 10.1064V29.602C38 31.1411 36.8357 32.2955 35.4126 32.2955Z" stroke="#10385B" stroke-width="2" stroke-miterlimit="10" stroke-linecap="round" stroke-linejoin="round"/>
<path d="M1 18.3164H11.9965" stroke="#10385B" stroke-width="2" stroke-miterlimit="10" stroke-linecap="round" stroke-linejoin="round"/>
<path d="M26.6152 18.3164H37.9998" stroke="#10385B" stroke-width="2" stroke-miterlimit="10" stroke-linecap="round" stroke-linejoin="round"/>
<path d="M22.2167 20.2411H16.7831C16.1362 20.2411 15.4894 19.728 15.4894 18.9585V17.4193C15.4894 16.778 16.0069 16.1367 16.7831 16.1367H22.2167C22.8635 16.1367 23.5104 16.6498 23.5104 17.4193V18.9585C23.5104 19.728 22.8635 20.2411 22.2167 20.2411Z" stroke="#1FD4F6" stroke-width="2" stroke-miterlimit="10" stroke-linecap="round" stroke-linejoin="round"/>
<path d="M27.2912 7.28703H11.8594V4.98984C11.8594 2.81357 13.7725 1 16.0681 1H23.0826C25.3782 1 27.2912 2.81357 27.2912 4.98984V7.28703Z" stroke="#10385B" stroke-width="2" stroke-miterlimit="10" stroke-linecap="round" stroke-linejoin="round"/>
</svg>
