<svg width="145" height="143" viewBox="0 0 145 143" fill="none" xmlns="http://www.w3.org/2000/svg">
<path d="M29.9948 77.6504L25.3212 87.3773L21.7285 94.8488L17.7137 103.205L14.8108 109.235L11.7636 115.584L9.58121 120.125L7.30624 124.854L5.54613 128.5L3.52826 132.713L2.14894 135.574L0.141734 139.737C-0.352327 140.761 0.703056 141.835 1.72953 141.369L5.94585 139.477L8.82393 138.176L13.0707 136.254L16.7537 134.594L21.5437 132.44L26.1224 130.372L32.5225 127.49L38.6107 124.743L47.0536 120.938L54.5807 117.551L64.7342 112.979L29.9852 77.6203L29.9948 77.6504Z" fill="url(#paint0_linear_5_372)"/>
<path d="M3.51769 132.722L2.13838 135.584C2.67888 136.281 3.28951 136.97 3.94027 137.648C4.59103 138.327 5.25289 138.927 5.93516 139.496L8.81324 138.195C7.84319 137.462 6.88465 136.619 5.96747 135.676C5.04043 134.723 4.22379 133.742 3.50756 132.732L3.51769 132.722Z" fill="url(#paint1_linear_5_372)"/>
<path d="M7.3063 124.864L5.54619 128.51C6.52665 129.944 7.67738 131.36 8.99877 132.728C10.3104 134.076 11.6943 135.265 13.0806 136.274L16.7637 134.614C14.9793 133.46 13.1992 131.995 11.5226 130.272C9.84607 128.549 8.41128 126.699 7.29631 124.864L7.3063 124.864Z" fill="url(#paint2_linear_5_372)"/>
<path d="M11.754 115.584L9.57159 120.124C10.9501 122.433 12.7282 124.778 14.8881 126.988C17.048 129.197 19.2933 131.018 21.5539 132.449L26.1327 130.382C23.3735 128.844 20.5426 126.695 17.939 124.019C15.3354 121.343 13.2155 118.404 11.7641 115.574L11.754 115.584Z" fill="url(#paint3_linear_5_372)"/>
<path d="M25.3215 87.3772L21.7289 94.8487C23.9903 99.8701 27.5983 105.15 32.3321 110.015C37.0265 114.84 42.1462 118.551 47.0637 120.958L54.5908 117.571C48.8712 115.312 42.6678 111.137 37.0759 105.39C31.4841 99.6427 27.3922 93.1861 25.3218 87.3572L25.3215 87.3772Z" fill="url(#paint4_linear_5_372)"/>
<path d="M17.7039 103.214L14.8011 109.244C16.6736 112.72 19.2753 116.266 22.5102 119.581C25.7056 122.865 29.1492 125.542 32.5326 127.509L38.6208 124.762C34.568 122.746 30.3598 119.668 26.4938 115.695C22.5984 111.681 19.6076 107.34 17.7041 103.204L17.7039 103.214Z" fill="url(#paint5_linear_5_372)"/>
<path style="mix-blend-mode:screen" d="M44.7601 92.6831L0.779027 141.385C0.490697 141.261 0.253729 141.038 0.127713 140.746L33.6736 81.4003L44.7601 92.6831V92.6831Z" fill="url(#paint6_linear_5_372)"/>
<path d="M30.5528 77.108C27.7552 79.83 33.2362 90.016 42.8025 99.8479C52.3687 109.68 62.3908 115.438 65.1984 112.716C68.0059 109.994 62.5149 99.8079 52.9486 89.9759C43.3824 80.144 33.3603 74.3862 30.5528 77.108Z" fill="#A1B6CE"/>
<path d="M53.9083 65.1608L53.1083 68.0208C52.7883 69.1508 46.0783 66.4608 44.9983 69.2308L45.6883 66.7508C46.0683 64.6108 49.1383 65.0208 51.4183 65.3008C52.7383 65.4708 53.7883 65.5908 53.9083 65.1608V65.1608Z" fill="url(#paint7_linear_5_372)"/>
<path d="M53.909 65.1597C53.789 65.5897 52.739 65.4697 51.419 65.2997C49.859 63.4097 47.839 61.0697 48.159 59.7497C48.169 59.6997 48.189 59.6597 48.199 59.6097C48.369 59.1597 48.819 58.8797 49.409 58.6797C50.709 61.0697 54.169 64.2497 53.909 65.1597Z" fill="url(#paint8_linear_5_372)"/>
<path d="M56.4885 53.5293L55.6885 56.3893C55.1585 58.2993 51.4285 57.9993 49.4085 58.6793C48.8185 58.8793 48.3685 59.1593 48.1985 59.6093L48.9985 56.7593C49.5885 55.1693 53.5585 55.6293 55.4985 54.6293C55.9885 54.3793 56.3485 54.0293 56.4885 53.5293V53.5293Z" fill="url(#paint9_linear_5_372)"/>
<path d="M56.4878 53.53C56.3478 54.03 55.9878 54.38 55.4978 54.63C54.6578 52.62 52.1978 50.32 52.7078 46.52C52.7678 46.1 52.8478 45.7 52.9578 45.33C53.0978 44.85 53.2678 44.4 53.4778 43.99C53.0478 48.71 57.1878 51.07 56.4978 53.53H56.4878Z" fill="url(#paint10_linear_5_372)"/>
<path d="M62.0579 36L61.2579 38.86C61.2579 38.86 55.6279 39.62 53.4579 43.98C53.2479 44.39 53.0779 44.84 52.9379 45.32L53.7379 42.46C55.3179 36.91 62.0579 36 62.0579 36V36Z" fill="url(#paint11_linear_5_372)"/>
<path d="M122.873 85.9019L120.652 86.4325C120.652 86.4325 118.883 82.8068 116.463 82.1424C116.065 82.0394 115.654 82.0053 115.222 82.0892L117.443 81.5586C120.485 80.9845 122.873 85.9019 122.873 85.9019Z" fill="url(#paint12_linear_5_372)"/>
<path d="M83.4792 99.2704C83.1312 99.3392 82.7645 99.3435 82.3754 99.3032C85.3948 97.1799 87.2005 89.3873 92.9012 87.8337C92.9772 87.8069 93.0613 87.7918 93.1355 87.7748C93.1883 87.7641 93.2411 87.7534 93.2939 87.7426C93.5577 87.6891 93.8144 87.6748 94.0676 87.6803C88.6832 90.064 87.0966 98.2725 83.6804 99.2258C83.616 99.2445 83.5418 99.2615 83.4792 99.2704Z" fill="url(#paint13_linear_5_372)"/>
<path d="M108.635 94.5314C108.21 94.6369 107.798 94.6635 107.388 94.6294C110.908 92.3229 112.375 82.8729 115.095 82.118C115.095 82.118 115.169 82.101 115.202 82.0867C115.634 82.0028 116.044 82.0369 116.442 82.1399C114.015 84.5845 112.431 93.6168 108.626 94.5297L108.635 94.5314Z" fill="url(#paint14_linear_5_372)"/>
<path d="M83.4789 99.2702L81.2677 99.8026C77.5735 100.553 71.3056 94.2271 67.4306 95.0765L69.6517 94.5459C73.167 93.7733 78.6294 98.885 82.3752 99.303C82.7642 99.3433 83.1309 99.339 83.4789 99.2702V99.2702Z" fill="url(#paint15_linear_5_372)"/>
<path d="M108.636 94.5319L106.415 95.0625C101.559 96.221 98.4094 87.841 94.0679 87.6804C93.8147 87.6749 93.558 87.6891 93.2942 87.7427L95.5152 87.2121C99.8731 86.3898 102.953 94.259 107.388 94.6299C107.789 94.6622 108.2 94.6355 108.636 94.5319Z" fill="url(#paint16_linear_5_372)"/>
<path d="M114.078 66.8L110.268 67.94C110.818 67.74 111.328 67.45 111.788 67.1C114.988 64.62 116.178 58.81 119.238 56.14L123.048 55C119.538 58.06 118.488 65.22 114.078 66.81V66.8Z" fill="url(#paint17_linear_5_372)"/>
<path d="M109.748 68.0994C109.438 68.1794 109.108 68.2294 108.768 68.2494C105.808 68.4294 101.678 66.4594 98.8882 65.5894C95.9182 64.6594 92.9382 64.1494 89.9082 64.3494C89.2982 64.3894 88.7082 64.4594 88.1282 64.5594C88.7282 64.2894 89.3582 64.0594 89.9882 63.8694H90.0182C91.1982 63.5094 92.4382 63.2894 93.7282 63.2094C96.7682 63.0194 99.7382 63.5294 102.708 64.4494C105.258 65.2494 108.928 66.9594 111.798 67.1094C111.338 67.4694 110.838 67.7494 110.278 67.9494C110.108 68.0094 109.938 68.0594 109.758 68.1094L109.748 68.0994Z" fill="url(#paint18_linear_5_372)"/>
<path d="M63.3883 84.41C61.9283 84.8 60.4483 84.81 58.9983 84.31L62.8083 83.17C63.7483 83.5 64.6883 83.61 65.6383 83.54C65.0883 83.82 64.5383 84.05 63.9883 84.24C63.7883 84.31 63.5883 84.37 63.3883 84.42V84.41Z" fill="url(#paint19_linear_5_372)"/>
<path d="M67.5183 83.1794H67.5083L63.9983 84.2294C64.5583 84.0394 65.1083 83.8094 65.6483 83.5294C70.4883 81.0594 74.8683 75.2494 76.9883 72.0094C79.2383 68.5694 82.4083 66.1294 86.1683 64.9994L89.9783 63.8594C89.3383 64.0494 88.7183 64.2794 88.1183 64.5494C85.1683 65.8494 82.6683 68.0194 80.7983 70.8694C78.3983 74.5394 73.1083 81.4994 67.5183 83.1794V83.1794Z" fill="url(#paint20_linear_5_372)"/>
<path d="M95.0283 20L93.1483 22.88C93.1483 22.88 89.6183 26.05 82.3183 29.18C82.2783 29.2 82.2483 29.21 82.2083 29.23C81.5383 29.52 81.0783 29.87 80.7883 30.27L82.5683 27.54C82.8483 27.08 83.3283 26.68 84.0883 26.35C91.4683 23.21 95.0383 20 95.0383 20H95.0283Z" fill="url(#paint21_linear_5_372)"/>
<path d="M72.8283 56.9805L71.0183 59.7405L70.8783 59.9505C70.1483 60.9505 68.7683 61.1805 66.9983 61.4905L68.8783 58.6105C69.8783 58.4305 70.7583 58.2805 71.4583 58.0105C72.0383 57.7805 72.4983 57.4705 72.8283 56.9805V56.9805Z" fill="url(#paint22_linear_5_372)"/>
<path d="M72.8289 56.9804C72.5089 57.4704 72.0389 57.7804 71.4589 58.0104C71.4889 57.3804 71.4389 56.6204 71.2889 55.6904C70.8989 53.2404 69.5889 51.1504 70.8689 49.0904L70.9489 48.9604C71.2489 48.5204 71.6589 48.0904 72.2289 47.6504C72.0189 49.2604 72.8689 50.9304 73.1689 52.8104C73.4989 54.9104 73.3489 56.1804 72.8189 56.9804H72.8289Z" fill="url(#paint23_linear_5_372)"/>
<path d="M86.1083 38.7695L84.3083 41.5195L84.1383 41.7695C82.9883 43.3295 79.9583 44.1695 76.9083 45.2995C74.7483 46.0995 73.2483 46.8795 72.2383 47.6495C71.6683 48.0895 71.2483 48.5195 70.9583 48.9595L72.8483 46.0695C73.6683 44.8695 75.4183 43.6695 78.7882 42.4295C80.9383 41.6295 83.0683 40.9795 84.5483 40.1295C85.2283 39.7395 85.7683 39.2995 86.1083 38.7795V38.7695Z" fill="url(#paint24_linear_5_372)"/>
<path d="M86.1185 38.7599C85.7785 39.2899 85.2385 39.7299 84.5585 40.1199C84.0585 37.3799 79.1585 32.9799 80.6885 30.4099L80.7885 30.2599C81.0785 29.8599 81.5386 29.5099 82.2086 29.2199C82.2486 29.1999 82.2886 29.1899 82.3186 29.1699C82.8086 32.0899 87.0785 36.0199 86.4085 38.1499C86.3385 38.3599 86.2485 38.5599 86.1285 38.7399L86.1185 38.7599Z" fill="url(#paint25_linear_5_372)"/>
<path d="M85.9983 54.43C86.4983 55.05 87.1583 55.25 88.2583 55.29C88.5283 53.57 88.8783 52.59 89.7483 51.18C88.9483 51.11 88.4283 50.8 87.5383 50C86.6683 51.44 86.2883 52.71 85.9983 54.43Z" fill="url(#paint26_linear_5_372)"/>
<path d="M65.0452 14.36C64.9252 16.12 65.0052 17.55 65.6452 18.87C66.8152 19.02 67.5652 18.87 68.3752 18.45C67.7252 16.79 67.5952 15.76 67.8152 14C66.7452 14.57 66.0252 14.75 65.0452 14.35V14.36Z" fill="url(#paint27_linear_5_372)"/>
<path d="M103.255 50.4804C103.395 49.7904 103.685 49.4504 104.175 49.0104C103.115 48.5704 102.005 48.2504 101.475 48.2704C101.245 48.7704 101.165 49.2404 101.155 49.9104C101.755 49.8804 102.325 50.1004 103.255 50.4904V50.4804Z" fill="url(#paint28_linear_5_372)"/>
<path d="M127.185 55.3496C126.825 55.4296 126.625 55.5296 126.325 55.8296C126.675 56.1296 126.825 56.3696 126.915 56.6696C127.255 56.6196 127.475 56.5296 127.805 56.3496C127.525 56.0496 127.375 55.7796 127.185 55.3496Z" fill="url(#paint29_linear_5_372)"/>
<path d="M86.3152 34.1509C86.6752 34.2609 86.9052 34.2709 87.3152 34.1709C87.1552 33.7309 87.1452 33.4509 87.2252 33.1309C86.8952 33.0009 86.6552 32.9709 86.2852 32.9609C86.3852 33.3709 86.3752 33.6809 86.3252 34.1609L86.3152 34.1509Z" fill="url(#paint30_linear_5_372)"/>
<path d="M60.9983 46C61.1783 46.73 61.4383 47.5 62.0983 48.06C62.7283 48.06 63.1483 48.09 63.7783 48.26C63.5183 47.77 63.6083 47.39 64.0183 46.72C63.0583 46.71 62.1783 46.41 60.9983 46Z" fill="url(#paint31_linear_5_372)"/>
<path d="M83.8083 77.02C83.7783 76.62 83.5683 76.38 83.2183 76C82.4183 76.8 81.3283 77.41 79.9983 77.99C80.2683 78.31 80.3583 78.57 80.4083 79.03C81.8483 78.49 82.6083 78.07 83.8083 77.02Z" fill="url(#paint32_linear_5_372)"/>
<path d="M143.758 51.95C143.138 51.66 142.838 51.47 142.498 51C142.318 51.21 142.178 51.31 141.998 51.32C142.328 51.85 142.678 52.13 143.308 52.49C143.518 52.34 143.648 52.16 143.758 51.95V51.95Z" fill="url(#paint33_linear_5_372)"/>
<path d="M101.377 78.99C102.117 79.41 102.847 79.34 103.957 78.95C103.547 77.14 103.507 76.03 103.817 74.3C102.997 74.54 102.367 74.44 101.167 74C100.867 75.77 100.987 77.17 101.377 78.99V78.99Z" fill="url(#paint34_linear_5_372)"/>
<path d="M128.468 75.27C128.658 74.54 128.678 74.12 128.308 73.4C127.048 73.38 126.298 73.27 125.098 73C125.158 73.45 125.098 73.77 124.998 74.04C126.388 74.31 127.208 74.66 128.468 75.28V75.27Z" fill="url(#paint35_linear_5_372)"/>
<path d="M142.908 76C142.068 76.84 140.878 77.33 137.998 77.38C138.218 78.61 138.758 79.61 139.848 80.72C141.988 80.38 143.238 80.01 144.968 78.83C143.918 78.09 143.508 77.41 142.908 76V76Z" fill="url(#paint36_linear_5_372)"/>
<path d="M82.295 0C81.985 1.25 81.875 2.29 82.175 3.32C82.995 3.57 83.555 3.56 84.185 3.36C83.915 2.08 83.955 1.33 84.335 0.0900002C83.495 0.37 82.955 0.41 82.295 0Z" fill="url(#paint37_linear_5_372)"/>
<path d="M126.778 30.0503C127.168 29.9103 127.548 29.8903 128.048 30.1303C128.258 28.7703 128.228 27.8903 128.098 26.5803C127.338 26.3403 126.868 26.3803 126.538 26.4503C126.988 27.7803 126.958 28.6803 126.788 30.0403L126.778 30.0503Z" fill="url(#paint38_linear_5_372)"/>
<path d="M94.9983 34.4508C95.3483 35.3908 95.2683 36.0108 94.9983 36.9208C96.6083 36.6508 98.1883 36.2008 98.8183 35.7708C98.7183 34.9908 98.4483 34.3708 97.9683 33.5508C97.2683 34.0408 96.4283 34.2108 94.9983 34.4408V34.4508Z" fill="url(#paint39_linear_5_372)"/>
<path d="M115.218 52.2306C114.998 51.7406 114.788 51.4806 114.288 51.1406C113.968 51.7306 113.668 52.0106 113.248 52.2306C113.418 52.7106 113.608 53.0006 113.968 53.4106C114.318 52.9106 114.658 52.6206 115.218 52.2306V52.2306Z" fill="url(#paint40_linear_5_372)"/>
<path d="M55.7383 77.91C56.1683 77.21 56.5783 76.42 56.5183 75.47C56.0383 74.98 55.7383 74.62 55.3883 74C55.1983 74.58 54.8383 74.79 53.9983 74.99C54.7183 75.75 55.1583 76.66 55.7383 77.91V77.91Z" fill="url(#paint41_linear_5_372)"/>
<path d="M70.1883 66.7272C69.1283 66.0872 68.4683 65.8472 67.1583 66.0972C66.5183 68.0672 65.9983 69.1972 64.9983 70.9572C65.7383 71.0772 66.2183 71.3172 66.5883 71.6072C67.6783 69.5472 68.6183 68.4272 70.1983 66.7272H70.1883Z" fill="url(#paint42_linear_5_372)"/>
<path d="M100.998 15.68C101.848 15.92 102.798 16.11 103.758 15.76C104.118 15.11 104.408 14.69 104.948 14.15C104.288 14.13 103.958 13.82 103.508 13C102.938 13.98 102.118 14.7 100.998 15.68Z" fill="url(#paint43_linear_5_372)"/>
<path d="M44.9983 72.62C44.9983 73.19 45.0983 73.53 45.4383 74.07C45.9983 73.64 46.4083 73.49 46.9083 73.45C46.9483 72.92 46.8783 72.55 46.7083 72C46.1583 72.33 45.7083 72.47 44.9983 72.61V72.62Z" fill="url(#paint44_linear_5_372)"/>
<defs>
<linearGradient id="paint0_linear_5_372" x1="10.6643" y1="105.287" x2="37.383" y2="129.436" gradientUnits="userSpaceOnUse">
<stop stop-color="#E3E3E3"/>
<stop offset="0.63" stop-color="#E2E2E2"/>
<stop offset="1" stop-color="white"/>
</linearGradient>
<linearGradient id="paint1_linear_5_372" x1="2.05604" y1="133.15" x2="7.27178" y2="138.778" gradientUnits="userSpaceOnUse">
<stop stop-color="#1FD4F6"/>
<stop offset="1" stop-color="#1166B5"/>
</linearGradient>
<linearGradient id="paint2_linear_5_372" x1="5.3914" y1="125.59" x2="14.1581" y2="135.067" gradientUnits="userSpaceOnUse">
<stop stop-color="#1FD4F6"/>
<stop offset="1" stop-color="#1166B5"/>
</linearGradient>
<linearGradient id="paint3_linear_5_372" x1="9.33126" y1="116.651" x2="22.2838" y2="130.658" gradientUnits="userSpaceOnUse">
<stop stop-color="#1FD4F6"/>
<stop offset="1" stop-color="#1166B5"/>
</linearGradient>
<linearGradient id="paint4_linear_5_372" x1="21.2301" y1="89.5112" x2="46.9984" y2="117.334" gradientUnits="userSpaceOnUse">
<stop stop-color="#1FD4F6"/>
<stop offset="1" stop-color="#1166B5"/>
</linearGradient>
<linearGradient id="paint5_linear_5_372" x1="14.4483" y1="104.758" x2="33.0962" y2="124.914" gradientUnits="userSpaceOnUse">
<stop stop-color="#1FD4F6"/>
<stop offset="1" stop-color="#1166B5"/>
</linearGradient>
<linearGradient id="paint6_linear_5_372" x1="7.25874" y1="100.926" x2="25.0169" y2="119.436" gradientUnits="userSpaceOnUse">
<stop stop-color="#FFDA94"/>
<stop offset="0.25" stop-color="#B89D6B"/>
<stop offset="0.62" stop-color="#564931"/>
<stop offset="0.87" stop-color="#18140D"/>
<stop offset="1"/>
</linearGradient>
<linearGradient id="paint7_linear_5_372" x1="45.8488" y1="66.1824" x2="53.0714" y2="68.2031" gradientUnits="userSpaceOnUse">
<stop stop-color="#0038AB"/>
<stop offset="0.16" stop-color="#0061C9"/>
<stop offset="0.38" stop-color="#0097EF"/>
<stop offset="0.48" stop-color="#00ACFF"/>
<stop offset="0.57" stop-color="#00ACFF"/>
<stop offset="0.64" stop-color="#00A1F7"/>
<stop offset="0.75" stop-color="#0085E3"/>
<stop offset="0.9" stop-color="#0059C3"/>
<stop offset="1" stop-color="#0038AB"/>
</linearGradient>
<linearGradient id="paint8_linear_5_372" x1="44.5907" y1="58.8407" x2="61.013" y2="67.6926" gradientUnits="userSpaceOnUse">
<stop stop-color="#0038AB"/>
<stop offset="0.16" stop-color="#0061C9"/>
<stop offset="0.38" stop-color="#0097EF"/>
<stop offset="0.48" stop-color="#00ACFF"/>
<stop offset="0.57" stop-color="#00ACFF"/>
<stop offset="0.64" stop-color="#00A1F7"/>
<stop offset="0.75" stop-color="#0085E3"/>
<stop offset="0.9" stop-color="#0059C3"/>
<stop offset="1" stop-color="#0038AB"/>
</linearGradient>
<linearGradient id="paint9_linear_5_372" x1="49.3065" y1="55.7155" x2="55.412" y2="57.4236" gradientUnits="userSpaceOnUse">
<stop stop-color="#0038AB"/>
<stop offset="0.16" stop-color="#0061C9"/>
<stop offset="0.38" stop-color="#0097EF"/>
<stop offset="0.48" stop-color="#00ACFF"/>
<stop offset="0.57" stop-color="#00ACFF"/>
<stop offset="0.64" stop-color="#00A1F7"/>
<stop offset="0.75" stop-color="#0085E3"/>
<stop offset="0.9" stop-color="#0059C3"/>
<stop offset="1" stop-color="#0038AB"/>
</linearGradient>
<linearGradient id="paint10_linear_5_372" x1="49.2207" y1="47.001" x2="65.1947" y2="54.0037" gradientUnits="userSpaceOnUse">
<stop stop-color="#0038AB"/>
<stop offset="0.16" stop-color="#0061C9"/>
<stop offset="0.38" stop-color="#0097EF"/>
<stop offset="0.48" stop-color="#00ACFF"/>
<stop offset="0.57" stop-color="#00ACFF"/>
<stop offset="0.64" stop-color="#00A1F7"/>
<stop offset="0.75" stop-color="#0085E3"/>
<stop offset="0.9" stop-color="#0059C3"/>
<stop offset="1" stop-color="#0038AB"/>
</linearGradient>
<linearGradient id="paint11_linear_5_372" x1="54.4986" y1="39.8277" x2="60.5367" y2="41.517" gradientUnits="userSpaceOnUse">
<stop stop-color="#0038AB"/>
<stop offset="0.16" stop-color="#0061C9"/>
<stop offset="0.38" stop-color="#0097EF"/>
<stop offset="0.48" stop-color="#00ACFF"/>
<stop offset="0.57" stop-color="#00ACFF"/>
<stop offset="0.64" stop-color="#00A1F7"/>
<stop offset="0.75" stop-color="#0085E3"/>
<stop offset="0.9" stop-color="#0059C3"/>
<stop offset="1" stop-color="#0038AB"/>
</linearGradient>
<linearGradient id="paint12_linear_5_372" x1="108.604" y1="83.8229" x2="109.872" y2="89.1542" gradientUnits="userSpaceOnUse">
<stop stop-color="#DA0000"/>
<stop offset="0.09" stop-color="#E61014"/>
<stop offset="0.24" stop-color="#F82831"/>
<stop offset="0.33" stop-color="#FF313D"/>
<stop offset="0.36" stop-color="#FD3F49"/>
<stop offset="0.42" stop-color="#FB5C63"/>
<stop offset="0.47" stop-color="#F96D72"/>
<stop offset="0.51" stop-color="#F97478"/>
<stop offset="0.67" stop-color="#FF313D"/>
<stop offset="0.69" stop-color="#F92C37"/>
<stop offset="0.81" stop-color="#DD141A"/>
<stop offset="0.92" stop-color="#CC0509"/>
<stop offset="1" stop-color="#C70003"/>
</linearGradient>
<linearGradient id="paint13_linear_5_372" x1="79.2105" y1="87.5043" x2="81.5455" y2="109.754" gradientUnits="userSpaceOnUse">
<stop stop-color="#DA0000"/>
<stop offset="0.09" stop-color="#E61014"/>
<stop offset="0.24" stop-color="#F82831"/>
<stop offset="0.33" stop-color="#FF313D"/>
<stop offset="0.36" stop-color="#FD3F49"/>
<stop offset="0.42" stop-color="#FB5C63"/>
<stop offset="0.47" stop-color="#F96D72"/>
<stop offset="0.51" stop-color="#F97478"/>
<stop offset="0.67" stop-color="#FF313D"/>
<stop offset="0.69" stop-color="#F92C37"/>
<stop offset="0.81" stop-color="#DD141A"/>
<stop offset="0.92" stop-color="#CC0509"/>
<stop offset="1" stop-color="#C70003"/>
</linearGradient>
<linearGradient id="paint14_linear_5_372" x1="102.277" y1="84.9173" x2="104.702" y2="103.457" gradientUnits="userSpaceOnUse">
<stop stop-color="#DA0000"/>
<stop offset="0.09" stop-color="#E61014"/>
<stop offset="0.24" stop-color="#F82831"/>
<stop offset="0.33" stop-color="#FF313D"/>
<stop offset="0.36" stop-color="#FD3F49"/>
<stop offset="0.42" stop-color="#FB5C63"/>
<stop offset="0.47" stop-color="#F96D72"/>
<stop offset="0.51" stop-color="#F97478"/>
<stop offset="0.67" stop-color="#FF313D"/>
<stop offset="0.69" stop-color="#F92C37"/>
<stop offset="0.81" stop-color="#DD141A"/>
<stop offset="0.92" stop-color="#CC0509"/>
<stop offset="1" stop-color="#C70003"/>
</linearGradient>
<linearGradient id="paint15_linear_5_372" x1="64.8675" y1="95.8487" x2="66.6721" y2="103.437" gradientUnits="userSpaceOnUse">
<stop stop-color="#DA0000"/>
<stop offset="0.09" stop-color="#E61014"/>
<stop offset="0.24" stop-color="#F82831"/>
<stop offset="0.33" stop-color="#FF313D"/>
<stop offset="0.36" stop-color="#FD3F49"/>
<stop offset="0.42" stop-color="#FB5C63"/>
<stop offset="0.47" stop-color="#F96D72"/>
<stop offset="0.51" stop-color="#F97478"/>
<stop offset="0.67" stop-color="#FF313D"/>
<stop offset="0.69" stop-color="#F92C37"/>
<stop offset="0.81" stop-color="#DD141A"/>
<stop offset="0.92" stop-color="#CC0509"/>
<stop offset="1" stop-color="#C70003"/>
</linearGradient>
<linearGradient id="paint16_linear_5_372" x1="90.0325" y1="88.6827" x2="92.3831" y2="98.5671" gradientUnits="userSpaceOnUse">
<stop stop-color="#DA0000"/>
<stop offset="0.09" stop-color="#E61014"/>
<stop offset="0.24" stop-color="#F82831"/>
<stop offset="0.33" stop-color="#FF313D"/>
<stop offset="0.36" stop-color="#FD3F49"/>
<stop offset="0.42" stop-color="#FB5C63"/>
<stop offset="0.47" stop-color="#F96D72"/>
<stop offset="0.51" stop-color="#F97478"/>
<stop offset="0.67" stop-color="#FF313D"/>
<stop offset="0.69" stop-color="#F92C37"/>
<stop offset="0.81" stop-color="#DD141A"/>
<stop offset="0.92" stop-color="#CC0509"/>
<stop offset="1" stop-color="#C70003"/>
</linearGradient>
<linearGradient id="paint17_linear_5_372" x1="116.34" y1="51.4039" x2="117.114" y2="80.4163" gradientUnits="userSpaceOnUse">
<stop stop-color="#AB3C00"/>
<stop offset="0.47" stop-color="#FFC700"/>
<stop offset="0.59" stop-color="#FFC700"/>
<stop offset="1" stop-color="#AB3C00"/>
</linearGradient>
<linearGradient id="paint18_linear_5_372" x1="98.5281" y1="61.1774" x2="101.334" y2="70.5253" gradientUnits="userSpaceOnUse">
<stop stop-color="#AB3C00"/>
<stop offset="0.47" stop-color="#FFC700"/>
<stop offset="0.59" stop-color="#FFC700"/>
<stop offset="1" stop-color="#AB3C00"/>
</linearGradient>
<linearGradient id="paint19_linear_5_372" x1="55.9002" y1="66.5413" x2="64.5873" y2="90.0878" gradientUnits="userSpaceOnUse">
<stop stop-color="#AB3C00"/>
<stop offset="0.47" stop-color="#FFC700"/>
<stop offset="0.59" stop-color="#FFC700"/>
<stop offset="1" stop-color="#AB3C00"/>
</linearGradient>
<linearGradient id="paint20_linear_5_372" x1="77.5637" y1="58.1891" x2="75.798" y2="102.216" gradientUnits="userSpaceOnUse">
<stop stop-color="#AB3C00"/>
<stop offset="0.47" stop-color="#FFC700"/>
<stop offset="0.59" stop-color="#FFC700"/>
<stop offset="1" stop-color="#AB3C00"/>
</linearGradient>
<linearGradient id="paint21_linear_5_372" x1="85.2457" y1="23.4691" x2="90.5262" y2="26.9233" gradientUnits="userSpaceOnUse">
<stop stop-color="#DA0000"/>
<stop offset="0.09" stop-color="#E61014"/>
<stop offset="0.24" stop-color="#F82831"/>
<stop offset="0.33" stop-color="#FF313D"/>
<stop offset="0.36" stop-color="#FD3F49"/>
<stop offset="0.42" stop-color="#FB5C63"/>
<stop offset="0.47" stop-color="#F96D72"/>
<stop offset="0.51" stop-color="#F97478"/>
<stop offset="0.67" stop-color="#FF313D"/>
<stop offset="0.69" stop-color="#F92C37"/>
<stop offset="0.81" stop-color="#DD141A"/>
<stop offset="0.92" stop-color="#CC0509"/>
<stop offset="1" stop-color="#C70003"/>
</linearGradient>
<linearGradient id="paint22_linear_5_372" x1="68.8971" y1="58.6374" x2="70.9056" y2="59.9512" gradientUnits="userSpaceOnUse">
<stop stop-color="#DA0000"/>
<stop offset="0.09" stop-color="#E61014"/>
<stop offset="0.24" stop-color="#F82831"/>
<stop offset="0.33" stop-color="#FF313D"/>
<stop offset="0.36" stop-color="#FD3F49"/>
<stop offset="0.42" stop-color="#FB5C63"/>
<stop offset="0.47" stop-color="#F96D72"/>
<stop offset="0.51" stop-color="#F97478"/>
<stop offset="0.67" stop-color="#FF313D"/>
<stop offset="0.69" stop-color="#F92C37"/>
<stop offset="0.81" stop-color="#DD141A"/>
<stop offset="0.92" stop-color="#CC0509"/>
<stop offset="1" stop-color="#C70003"/>
</linearGradient>
<linearGradient id="paint23_linear_5_372" x1="66.7711" y1="49.1923" x2="82.9696" y2="61.019" gradientUnits="userSpaceOnUse">
<stop stop-color="#DA0000"/>
<stop offset="0.09" stop-color="#E61014"/>
<stop offset="0.24" stop-color="#F82831"/>
<stop offset="0.33" stop-color="#FF313D"/>
<stop offset="0.36" stop-color="#FD3F49"/>
<stop offset="0.42" stop-color="#FB5C63"/>
<stop offset="0.47" stop-color="#F96D72"/>
<stop offset="0.51" stop-color="#F97478"/>
<stop offset="0.67" stop-color="#FF313D"/>
<stop offset="0.69" stop-color="#F92C37"/>
<stop offset="0.81" stop-color="#DD141A"/>
<stop offset="0.92" stop-color="#CC0509"/>
<stop offset="1" stop-color="#C70003"/>
</linearGradient>
<linearGradient id="paint24_linear_5_372" x1="75.5498" y1="41.9811" x2="81.4915" y2="45.8678" gradientUnits="userSpaceOnUse">
<stop stop-color="#DA0000"/>
<stop offset="0.09" stop-color="#E61014"/>
<stop offset="0.24" stop-color="#F82831"/>
<stop offset="0.33" stop-color="#FF313D"/>
<stop offset="0.36" stop-color="#FD3F49"/>
<stop offset="0.42" stop-color="#FB5C63"/>
<stop offset="0.47" stop-color="#F96D72"/>
<stop offset="0.51" stop-color="#F97478"/>
<stop offset="0.67" stop-color="#FF313D"/>
<stop offset="0.69" stop-color="#F92C37"/>
<stop offset="0.81" stop-color="#DD141A"/>
<stop offset="0.92" stop-color="#CC0509"/>
<stop offset="1" stop-color="#C70003"/>
</linearGradient>
<linearGradient id="paint25_linear_5_372" x1="79.0513" y1="31.916" x2="97.05" y2="43.4386" gradientUnits="userSpaceOnUse">
<stop stop-color="#DA0000"/>
<stop offset="0.09" stop-color="#E61014"/>
<stop offset="0.24" stop-color="#F82831"/>
<stop offset="0.33" stop-color="#FF313D"/>
<stop offset="0.36" stop-color="#FD3F49"/>
<stop offset="0.42" stop-color="#FB5C63"/>
<stop offset="0.47" stop-color="#F96D72"/>
<stop offset="0.51" stop-color="#F97478"/>
<stop offset="0.67" stop-color="#FF313D"/>
<stop offset="0.69" stop-color="#F92C37"/>
<stop offset="0.81" stop-color="#DD141A"/>
<stop offset="0.92" stop-color="#CC0509"/>
<stop offset="1" stop-color="#C70003"/>
</linearGradient>
<linearGradient id="paint26_linear_5_372" x1="73.7006" y1="60.172" x2="70.1707" y2="58.9708" gradientUnits="userSpaceOnUse">
<stop stop-color="#AB3C00"/>
<stop offset="0.34" stop-color="#FFC700"/>
<stop offset="0.37" stop-color="#FFCD17"/>
<stop offset="0.41" stop-color="#FFD432"/>
<stop offset="0.44" stop-color="#FFD946"/>
<stop offset="0.48" stop-color="#FFDC52"/>
<stop offset="0.52" stop-color="#FFDE56"/>
<stop offset="0.55" stop-color="#FFDC51"/>
<stop offset="0.59" stop-color="#FFD842"/>
<stop offset="0.62" stop-color="#FFD22B"/>
<stop offset="0.66" stop-color="#FFC90A"/>
<stop offset="0.67" stop-color="#FFC700"/>
<stop offset="1" stop-color="#AB3C00"/>
</linearGradient>
<linearGradient id="paint27_linear_5_372" x1="34.5689" y1="-3.4179" x2="37.7225" y2="-3.94222" gradientUnits="userSpaceOnUse">
<stop stop-color="#920040"/>
<stop offset="0.05" stop-color="#AD0052"/>
<stop offset="0.12" stop-color="#D00069"/>
<stop offset="0.19" stop-color="#EA0079"/>
<stop offset="0.25" stop-color="#F90083"/>
<stop offset="0.3" stop-color="#FF0087"/>
<stop offset="0.35" stop-color="#FF1A8B"/>
<stop offset="0.43" stop-color="#FF3F91"/>
<stop offset="0.5" stop-color="#FF5595"/>
<stop offset="0.55" stop-color="#FF5E97"/>
<stop offset="0.58" stop-color="#FF5595"/>
<stop offset="0.64" stop-color="#FF3E91"/>
<stop offset="0.71" stop-color="#FF198B"/>
<stop offset="0.75" stop-color="#FF0087"/>
<stop offset="0.79" stop-color="#F90083"/>
<stop offset="0.84" stop-color="#EA0079"/>
<stop offset="0.9" stop-color="#D10069"/>
<stop offset="0.96" stop-color="#AE0052"/>
<stop offset="1" stop-color="#920040"/>
</linearGradient>
<linearGradient id="paint28_linear_5_372" x1="108.992" y1="65.8849" x2="109.736" y2="63.5979" gradientUnits="userSpaceOnUse">
<stop stop-color="#400300"/>
<stop offset="0.07" stop-color="#750300"/>
<stop offset="0.14" stop-color="#A50300"/>
<stop offset="0.21" stop-color="#C80300"/>
<stop offset="0.26" stop-color="#DD0300"/>
<stop offset="0.3" stop-color="#E50300"/>
<stop offset="0.34" stop-color="#EE180C"/>
<stop offset="0.39" stop-color="#F72E18"/>
<stop offset="0.45" stop-color="#FD3B1F"/>
<stop offset="0.49" stop-color="#FF4022"/>
<stop offset="0.54" stop-color="#FD3B1F"/>
<stop offset="0.6" stop-color="#F72D17"/>
<stop offset="0.66" stop-color="#ED170B"/>
<stop offset="0.7" stop-color="#E50300"/>
<stop offset="0.73" stop-color="#DB0300"/>
<stop offset="0.79" stop-color="#C10300"/>
<stop offset="0.87" stop-color="#970300"/>
<stop offset="0.95" stop-color="#5E0300"/>
<stop offset="1" stop-color="#3B0300"/>
</linearGradient>
<linearGradient id="paint29_linear_5_372" x1="141.879" y1="34.3113" x2="140.898" y2="34.9033" gradientUnits="userSpaceOnUse">
<stop stop-color="#920040"/>
<stop offset="0.05" stop-color="#AD0052"/>
<stop offset="0.12" stop-color="#D00069"/>
<stop offset="0.19" stop-color="#EA0079"/>
<stop offset="0.25" stop-color="#F90083"/>
<stop offset="0.3" stop-color="#FF0087"/>
<stop offset="0.35" stop-color="#FF1A8B"/>
<stop offset="0.43" stop-color="#FF3F91"/>
<stop offset="0.5" stop-color="#FF5595"/>
<stop offset="0.55" stop-color="#FF5E97"/>
<stop offset="0.58" stop-color="#FF5595"/>
<stop offset="0.64" stop-color="#FF3E91"/>
<stop offset="0.71" stop-color="#FF198B"/>
<stop offset="0.75" stop-color="#FF0087"/>
<stop offset="0.79" stop-color="#F90083"/>
<stop offset="0.84" stop-color="#EA0079"/>
<stop offset="0.9" stop-color="#D10069"/>
<stop offset="0.96" stop-color="#AE0052"/>
<stop offset="1" stop-color="#920040"/>
</linearGradient>
<linearGradient id="paint30_linear_5_372" x1="101.163" y1="17.3042" x2="102.323" y2="17.2811" gradientUnits="userSpaceOnUse">
<stop stop-color="#AB3C00"/>
<stop offset="0.34" stop-color="#FFC700"/>
<stop offset="0.37" stop-color="#FFCD17"/>
<stop offset="0.41" stop-color="#FFD432"/>
<stop offset="0.44" stop-color="#FFD946"/>
<stop offset="0.48" stop-color="#FFDC52"/>
<stop offset="0.52" stop-color="#FFDE56"/>
<stop offset="0.55" stop-color="#FFDC51"/>
<stop offset="0.59" stop-color="#FFD842"/>
<stop offset="0.62" stop-color="#FFD22B"/>
<stop offset="0.66" stop-color="#FFC90A"/>
<stop offset="0.67" stop-color="#FFC700"/>
<stop offset="1" stop-color="#AB3C00"/>
</linearGradient>
<linearGradient id="paint31_linear_5_372" x1="67.5368" y1="76.8676" x2="67.339" y2="79.103" gradientUnits="userSpaceOnUse">
<stop stop-color="#005200"/>
<stop offset="0.19" stop-color="#00880B"/>
<stop offset="0.31" stop-color="#00A912"/>
<stop offset="0.33" stop-color="#11AC12"/>
<stop offset="0.37" stop-color="#39B512"/>
<stop offset="0.41" stop-color="#59BC12"/>
<stop offset="0.44" stop-color="#70C112"/>
<stop offset="0.48" stop-color="#7EC312"/>
<stop offset="0.51" stop-color="#83C512"/>
<stop offset="0.55" stop-color="#7EC412"/>
<stop offset="0.59" stop-color="#72C112"/>
<stop offset="0.63" stop-color="#5DBD12"/>
<stop offset="0.67" stop-color="#40B612"/>
<stop offset="0.72" stop-color="#1BAE12"/>
<stop offset="0.74" stop-color="#00A912"/>
<stop offset="0.78" stop-color="#009D10"/>
<stop offset="0.86" stop-color="#007F0B"/>
<stop offset="0.95" stop-color="#004F04"/>
<stop offset="1" stop-color="#003400"/>
</linearGradient>
<linearGradient id="paint32_linear_5_372" x1="121.721" y1="96.1804" x2="120.907" y2="94.3924" gradientUnits="userSpaceOnUse">
<stop stop-color="#005200"/>
<stop offset="0.19" stop-color="#00880B"/>
<stop offset="0.31" stop-color="#00A912"/>
<stop offset="0.33" stop-color="#11AC12"/>
<stop offset="0.37" stop-color="#39B512"/>
<stop offset="0.41" stop-color="#59BC12"/>
<stop offset="0.44" stop-color="#70C112"/>
<stop offset="0.48" stop-color="#7EC312"/>
<stop offset="0.51" stop-color="#83C512"/>
<stop offset="0.55" stop-color="#7EC412"/>
<stop offset="0.59" stop-color="#72C112"/>
<stop offset="0.63" stop-color="#5DBD12"/>
<stop offset="0.67" stop-color="#40B612"/>
<stop offset="0.72" stop-color="#1BAE12"/>
<stop offset="0.74" stop-color="#00A912"/>
<stop offset="0.78" stop-color="#009D10"/>
<stop offset="0.86" stop-color="#007F0B"/>
<stop offset="0.95" stop-color="#004F04"/>
<stop offset="1" stop-color="#003400"/>
</linearGradient>
<linearGradient id="paint33_linear_5_372" x1="131.78" y1="41.7928" x2="132.504" y2="40.8691" gradientUnits="userSpaceOnUse">
<stop stop-color="#0038AB"/>
<stop offset="0.11" stop-color="#0061C9"/>
<stop offset="0.27" stop-color="#0097EF"/>
<stop offset="0.35" stop-color="#00ACFF"/>
<stop offset="0.4" stop-color="#00BFFF"/>
<stop offset="0.47" stop-color="#00D2FF"/>
<stop offset="0.52" stop-color="#00D9FF"/>
<stop offset="0.66" stop-color="#00B7FF"/>
<stop offset="0.71" stop-color="#00ACFF"/>
<stop offset="0.76" stop-color="#00A1F7"/>
<stop offset="0.83" stop-color="#0085E3"/>
<stop offset="0.93" stop-color="#0059C3"/>
<stop offset="1" stop-color="#0038AB"/>
</linearGradient>
<linearGradient id="paint34_linear_5_372" x1="124.126" y1="52.8933" x2="120.188" y2="53.0792" gradientUnits="userSpaceOnUse">
<stop stop-color="#AB3C00"/>
<stop offset="0.34" stop-color="#FFC700"/>
<stop offset="0.37" stop-color="#FFCD17"/>
<stop offset="0.41" stop-color="#FFD432"/>
<stop offset="0.44" stop-color="#FFD946"/>
<stop offset="0.48" stop-color="#FFDC52"/>
<stop offset="0.52" stop-color="#FFDE56"/>
<stop offset="0.55" stop-color="#FFDC51"/>
<stop offset="0.59" stop-color="#FFD842"/>
<stop offset="0.62" stop-color="#FFD22B"/>
<stop offset="0.66" stop-color="#FFC90A"/>
<stop offset="0.67" stop-color="#FFC700"/>
<stop offset="1" stop-color="#AB3C00"/>
</linearGradient>
<linearGradient id="paint35_linear_5_372" x1="100.52" y1="29.0916" x2="100.347" y2="31.1575" gradientUnits="userSpaceOnUse">
<stop stop-color="#AB3C00"/>
<stop offset="0.34" stop-color="#FFC700"/>
<stop offset="0.37" stop-color="#FFCD17"/>
<stop offset="0.41" stop-color="#FFD432"/>
<stop offset="0.44" stop-color="#FFD946"/>
<stop offset="0.48" stop-color="#FFDC52"/>
<stop offset="0.52" stop-color="#FFDE56"/>
<stop offset="0.55" stop-color="#FFDC51"/>
<stop offset="0.59" stop-color="#FFD842"/>
<stop offset="0.62" stop-color="#FFD22B"/>
<stop offset="0.66" stop-color="#FFC90A"/>
<stop offset="0.67" stop-color="#FFC700"/>
<stop offset="1" stop-color="#AB3C00"/>
</linearGradient>
<linearGradient id="paint36_linear_5_372" x1="135.58" y1="95.5981" x2="137.624" y2="101.061" gradientUnits="userSpaceOnUse">
<stop stop-color="#400300"/>
<stop offset="0.07" stop-color="#750300"/>
<stop offset="0.14" stop-color="#A50300"/>
<stop offset="0.21" stop-color="#C80300"/>
<stop offset="0.26" stop-color="#DD0300"/>
<stop offset="0.3" stop-color="#E50300"/>
<stop offset="0.34" stop-color="#EE180C"/>
<stop offset="0.39" stop-color="#F72E18"/>
<stop offset="0.45" stop-color="#FD3B1F"/>
<stop offset="0.49" stop-color="#FF4022"/>
<stop offset="0.54" stop-color="#FD3B1F"/>
<stop offset="0.6" stop-color="#F72D17"/>
<stop offset="0.66" stop-color="#ED170B"/>
<stop offset="0.7" stop-color="#E50300"/>
<stop offset="0.73" stop-color="#DB0300"/>
<stop offset="0.79" stop-color="#C10300"/>
<stop offset="0.87" stop-color="#970300"/>
<stop offset="0.95" stop-color="#5E0300"/>
<stop offset="1" stop-color="#3B0300"/>
</linearGradient>
<linearGradient id="paint37_linear_5_372" x1="106.891" y1="27.992" x2="109.203" y2="28.0029" gradientUnits="userSpaceOnUse">
<stop stop-color="#005200"/>
<stop offset="0.19" stop-color="#00880B"/>
<stop offset="0.31" stop-color="#00A912"/>
<stop offset="0.33" stop-color="#11AC12"/>
<stop offset="0.37" stop-color="#39B512"/>
<stop offset="0.41" stop-color="#59BC12"/>
<stop offset="0.44" stop-color="#70C112"/>
<stop offset="0.48" stop-color="#7EC312"/>
<stop offset="0.51" stop-color="#83C512"/>
<stop offset="0.55" stop-color="#7EC412"/>
<stop offset="0.59" stop-color="#72C112"/>
<stop offset="0.63" stop-color="#5DBD12"/>
<stop offset="0.67" stop-color="#40B612"/>
<stop offset="0.72" stop-color="#1BAE12"/>
<stop offset="0.74" stop-color="#00A912"/>
<stop offset="0.78" stop-color="#009D10"/>
<stop offset="0.86" stop-color="#007F0B"/>
<stop offset="0.95" stop-color="#004F04"/>
<stop offset="1" stop-color="#003400"/>
</linearGradient>
<linearGradient id="paint38_linear_5_372" x1="126.187" y1="27.6574" x2="128.296" y2="27.5978" gradientUnits="userSpaceOnUse">
<stop stop-color="#400300"/>
<stop offset="0.07" stop-color="#750300"/>
<stop offset="0.14" stop-color="#A50300"/>
<stop offset="0.21" stop-color="#C80300"/>
<stop offset="0.26" stop-color="#DD0300"/>
<stop offset="0.3" stop-color="#E50300"/>
<stop offset="0.34" stop-color="#EE180C"/>
<stop offset="0.39" stop-color="#F72E18"/>
<stop offset="0.45" stop-color="#FD3B1F"/>
<stop offset="0.49" stop-color="#FF4022"/>
<stop offset="0.54" stop-color="#FD3B1F"/>
<stop offset="0.6" stop-color="#F72D17"/>
<stop offset="0.66" stop-color="#ED170B"/>
<stop offset="0.7" stop-color="#E50300"/>
<stop offset="0.73" stop-color="#DB0300"/>
<stop offset="0.79" stop-color="#C10300"/>
<stop offset="0.87" stop-color="#970300"/>
<stop offset="0.95" stop-color="#5E0300"/>
<stop offset="1" stop-color="#3B0300"/>
</linearGradient>
<linearGradient id="paint39_linear_5_372" x1="109.147" y1="42.9532" x2="109.978" y2="46.2436" gradientUnits="userSpaceOnUse">
<stop stop-color="#005200"/>
<stop offset="0.19" stop-color="#00880B"/>
<stop offset="0.31" stop-color="#00A912"/>
<stop offset="0.33" stop-color="#11AC12"/>
<stop offset="0.37" stop-color="#39B512"/>
<stop offset="0.41" stop-color="#59BC12"/>
<stop offset="0.44" stop-color="#70C112"/>
<stop offset="0.48" stop-color="#7EC312"/>
<stop offset="0.51" stop-color="#83C512"/>
<stop offset="0.55" stop-color="#7EC412"/>
<stop offset="0.59" stop-color="#72C112"/>
<stop offset="0.63" stop-color="#5DBD12"/>
<stop offset="0.67" stop-color="#40B612"/>
<stop offset="0.72" stop-color="#1BAE12"/>
<stop offset="0.74" stop-color="#00A912"/>
<stop offset="0.78" stop-color="#009D10"/>
<stop offset="0.86" stop-color="#007F0B"/>
<stop offset="0.95" stop-color="#004F04"/>
<stop offset="1" stop-color="#003400"/>
</linearGradient>
<linearGradient id="paint40_linear_5_372" x1="78.0501" y1="42.2484" x2="76.9271" y2="41.0311" gradientUnits="userSpaceOnUse">
<stop stop-color="#005200"/>
<stop offset="0.19" stop-color="#00880B"/>
<stop offset="0.31" stop-color="#00A912"/>
<stop offset="0.33" stop-color="#11AC12"/>
<stop offset="0.37" stop-color="#39B512"/>
<stop offset="0.41" stop-color="#59BC12"/>
<stop offset="0.44" stop-color="#70C112"/>
<stop offset="0.48" stop-color="#7EC312"/>
<stop offset="0.51" stop-color="#83C512"/>
<stop offset="0.55" stop-color="#7EC412"/>
<stop offset="0.59" stop-color="#72C112"/>
<stop offset="0.63" stop-color="#5DBD12"/>
<stop offset="0.67" stop-color="#40B612"/>
<stop offset="0.72" stop-color="#1BAE12"/>
<stop offset="0.74" stop-color="#00A912"/>
<stop offset="0.78" stop-color="#009D10"/>
<stop offset="0.86" stop-color="#007F0B"/>
<stop offset="0.95" stop-color="#004F04"/>
<stop offset="1" stop-color="#003400"/>
</linearGradient>
<linearGradient id="paint41_linear_5_372" x1="46.7755" y1="88.0587" x2="48.6829" y2="86.5039" gradientUnits="userSpaceOnUse">
<stop stop-color="#400300"/>
<stop offset="0.07" stop-color="#750300"/>
<stop offset="0.14" stop-color="#A50300"/>
<stop offset="0.21" stop-color="#C80300"/>
<stop offset="0.26" stop-color="#DD0300"/>
<stop offset="0.3" stop-color="#E50300"/>
<stop offset="0.34" stop-color="#EE180C"/>
<stop offset="0.39" stop-color="#F72E18"/>
<stop offset="0.45" stop-color="#FD3B1F"/>
<stop offset="0.49" stop-color="#FF4022"/>
<stop offset="0.54" stop-color="#FD3B1F"/>
<stop offset="0.6" stop-color="#F72D17"/>
<stop offset="0.66" stop-color="#ED170B"/>
<stop offset="0.7" stop-color="#E50300"/>
<stop offset="0.73" stop-color="#DB0300"/>
<stop offset="0.79" stop-color="#C10300"/>
<stop offset="0.87" stop-color="#970300"/>
<stop offset="0.95" stop-color="#5E0300"/>
<stop offset="1" stop-color="#3B0300"/>
</linearGradient>
<linearGradient id="paint42_linear_5_372" x1="57.7262" y1="71.7634" x2="60.8875" y2="73.0107" gradientUnits="userSpaceOnUse">
<stop stop-color="#AB3C00"/>
<stop offset="0.34" stop-color="#FFC700"/>
<stop offset="0.37" stop-color="#FFCD17"/>
<stop offset="0.41" stop-color="#FFD432"/>
<stop offset="0.44" stop-color="#FFD946"/>
<stop offset="0.48" stop-color="#FFDC52"/>
<stop offset="0.52" stop-color="#FFDE56"/>
<stop offset="0.55" stop-color="#FFDC51"/>
<stop offset="0.59" stop-color="#FFD842"/>
<stop offset="0.62" stop-color="#FFD22B"/>
<stop offset="0.66" stop-color="#FFC90A"/>
<stop offset="0.67" stop-color="#FFC700"/>
<stop offset="1" stop-color="#AB3C00"/>
</linearGradient>
<linearGradient id="paint43_linear_5_372" x1="70.5003" y1="5.329" x2="72.7034" y2="6.83746" gradientUnits="userSpaceOnUse">
<stop stop-color="#0038AB"/>
<stop offset="0.11" stop-color="#0061C9"/>
<stop offset="0.27" stop-color="#0097EF"/>
<stop offset="0.35" stop-color="#00ACFF"/>
<stop offset="0.4" stop-color="#00BFFF"/>
<stop offset="0.47" stop-color="#00D2FF"/>
<stop offset="0.52" stop-color="#00D9FF"/>
<stop offset="0.66" stop-color="#00B7FF"/>
<stop offset="0.71" stop-color="#00ACFF"/>
<stop offset="0.76" stop-color="#00A1F7"/>
<stop offset="0.83" stop-color="#0085E3"/>
<stop offset="0.93" stop-color="#0059C3"/>
<stop offset="1" stop-color="#0038AB"/>
</linearGradient>
<linearGradient id="paint44_linear_5_372" x1="42.9206" y1="70.4563" x2="43.4976" y2="72.1285" gradientUnits="userSpaceOnUse">
<stop stop-color="#0038AB"/>
<stop offset="0.11" stop-color="#0061C9"/>
<stop offset="0.27" stop-color="#0097EF"/>
<stop offset="0.35" stop-color="#00ACFF"/>
<stop offset="0.4" stop-color="#00BFFF"/>
<stop offset="0.47" stop-color="#00D2FF"/>
<stop offset="0.52" stop-color="#00D9FF"/>
<stop offset="0.66" stop-color="#00B7FF"/>
<stop offset="0.71" stop-color="#00ACFF"/>
<stop offset="0.76" stop-color="#00A1F7"/>
<stop offset="0.83" stop-color="#0085E3"/>
<stop offset="0.93" stop-color="#0059C3"/>
<stop offset="1" stop-color="#0038AB"/>
</linearGradient>
</defs>
</svg>
