<svg width="42" height="40" viewBox="0 0 42 40" fill="none" xmlns="http://www.w3.org/2000/svg">
<path d="M10.2683 7.82927C12.1541 7.82927 13.6829 6.30048 13.6829 4.41463C13.6829 2.52878 12.1541 1 10.2683 1C8.38244 1 6.85366 2.52878 6.85366 4.41463C6.85366 6.30048 8.38244 7.82927 10.2683 7.82927Z" stroke="#10385B" stroke-width="2" stroke-linecap="round" stroke-linejoin="round"/>
<path d="M23.2483 37.9159L16.4748 26.1169C16.2369 25.6993 15.7902 25.442 15.3095 25.442H5.2876L9.46338 10.584L14.8885 19.0355C15.4663 19.9532 16.4811 20.5116 17.5639 20.5116H22.4632" stroke="#10385B" stroke-width="2" stroke-linecap="round" stroke-linejoin="round"/>
<path d="M1 6.31631V24.5198C1 25.0733 1.44671 25.52 2.00024 25.5152L12.9884 25.4472" stroke="#10385B" stroke-width="2" stroke-linecap="round" stroke-linejoin="round"/>
<path d="M2.79688 37.916H10.9057" stroke="#10385B" stroke-width="2" stroke-linecap="round" stroke-linejoin="round"/>
<path d="M6.8508 37.9184V25.4493" stroke="#10385B" stroke-width="2" stroke-linecap="round" stroke-linejoin="round"/>
<path d="M29.7548 20.4986V16.3811" stroke="#1FD4F6" stroke-width="2" stroke-linecap="round" stroke-linejoin="round"/>
<path d="M26.3657 20.5117H40.4551C40.7546 20.5117 40.9999 20.9619 40.9999 21.5232V38.0727" stroke="#10385B" stroke-width="2" stroke-linecap="round" stroke-linejoin="round"/>
<path d="M38.7617 16.381H20.0436C19.728 16.381 19.4852 16.0994 19.5337 15.7886L21.1506 5.33944C21.1895 5.08695 21.4031 4.90244 21.6605 4.90244H40.3786C40.6943 4.90244 40.937 5.18406 40.8885 5.49481L39.2716 15.944C39.2327 16.1965 39.0191 16.381 38.7617 16.381Z" stroke="#1FD4F6" stroke-width="2" stroke-linecap="round" stroke-linejoin="round"/>
</svg>
